Coordinates
version=1
nRows=7
nColumns=63
inDegrees=yes

Units are S.I. units (second, meters, Newtons, ...)
If the header above contains a line with 'inDegrees', this indicates whether rotational values are in degrees (yes) or radians (no).

endheader
time	pelvis_tilt	pelvis_list	pelvis_rotation	pelvis_tx	pelvis_ty	pelvis_tz	hip_flexion_r	hip_adduction_r	hip_rotation_r	knee_angle_r	knee_angle_r_beta	ankle_angle_r	subtalar_angle_r	mtp_angle_r	hip_flexion_l	hip_adduction_l	hip_rotation_l	knee_angle_l	knee_angle_l_beta	ankle_angle_l	subtalar_angle_l	mtp_angle_l	L5_S1_Flex_Ext	L5_S1_Lat_Bending	L5_S1_axial_rotation	L4_L5_Flex_Ext	L4_L5_Lat_Bending	L4_L5_axial_rotation	L3_L4_Flex_Ext	L3_L4_Lat_Bending	L3_L4_axial_rotation	L2_L3_Flex_Ext	L2_L3_Lat_Bending	L2_L3_axial_rotation	L1_L2_Flex_Ext	L1_L2_Lat_Bending	L1_L2_axial_rotation	L1_T12_Flex_Ext	L1_T12_Lat_Bending	L1_T12_axial_rotation	Abs_r3	Abs_r2	Abs_r1	Abs_t1	Abs_t2	neck_flexion	neck_bending	neck_rotation	arm_flex_r	arm_add_r	arm_rot_r	elbow_flex_r	pro_sup_r	wrist_flex_r	wrist_dev_r	arm_flex_l	arm_add_l	arm_rot_l	elbow_flex_l	pro_sup_l	wrist_flex_l	wrist_dev_l
      0.00000000	     -0.21562802	     -5.01480113	     96.39948434	      0.08622157	      0.73157469	      0.75543914	     -7.88768672	      0.72304429	      2.08927632	      6.27564772	      0.10953072	     30.26540414	     -2.15939520	      0.00000000	     -6.22811234	      1.36346920	      4.72642436	      5.75881307	      0.10051025	     32.63792862	     -4.84915957	      0.00000000	      0.00538480	     -0.01102999	     -0.66330409	      0.01000010	     -0.01466989	     -0.70476060	      0.00884668	     -0.02681832	     -0.70476060	      0.00615428	     -0.02681832	     -0.58039108	      0.00500032	     -0.02249235	     -0.53893458	      0.00307687	     -0.01708545	     -0.49747807	      0.03846305	     -0.12477344	     -3.68909838	      0.00000000	      0.00000000	     10.49853753	     -0.54883854	     -2.48420836	     11.11461292	    -13.72950907	     57.70688061	     66.90780201	     89.42482356	     23.22103527	     23.08069097	      6.91556708	    -13.40982457	     43.18561528	     70.72343622	     85.31276165	     18.99304342	     30.65437917
      0.01694915	      0.11552235	     -5.14387396	     96.70373995	      0.08549508	      0.73140941	      0.75559496	     -7.57286396	      1.09878799	      2.38153071	      6.28258842	      0.10965185	     31.04490300	     -1.96628789	      0.00000000	     -6.05831838	      1.05805056	      4.29147194	      6.02742586	      0.10519843	     32.17009306	     -5.03381233	      0.00000000	     -0.00109549	      0.02588362	     -0.75401005	     -0.00203443	      0.03442521	     -0.80113568	     -0.00179977	      0.06293343	     -0.80113568	     -0.00125203	      0.06293343	     -0.65975880	     -0.00101727	      0.05278187	     -0.61263317	     -0.00062596	      0.04009372	     -0.56550754	     -0.00782495	      0.29280065	     -4.19357771	      0.00000000	      0.00000000	     11.22371195	     -0.60301069	     -2.39519550	     11.18023948	    -13.94056312	     57.57465150	     67.23265850	     89.45355675	     23.23388515	     22.96663536	      6.50050914	    -13.64567051	     43.08384694	     71.31658099	     85.03287748	     19.34273064	     30.24095070
      0.03389831	      0.48154541	     -5.31962777	     96.94001341	      0.08494384	      0.73106202	      0.75598811	     -7.12533749	      1.48741685	      2.29861757	      6.50662058	      0.11356195	     31.69631351	     -1.67637199	      0.00000000	     -5.70267237	      0.69407171	      3.85344551	      6.48636069	      0.11320835	     31.97006280	     -5.08269341	      0.00000000	     -0.00574255	      0.06960830	     -0.81265232	     -0.01066449	      0.09257904	     -0.86344309	     -0.00943444	      0.16924563	     -0.86344309	     -0.00656316	      0.16924563	     -0.71107078	     -0.00533253	      0.14194525	     -0.66028001	     -0.00328129	      0.10782326	     -0.60948924	     -0.04101847	      0.78742305	     -4.51972839	      0.00000000	      0.00000000	     12.21430035	     -0.79248566	     -2.02775155	     11.07486127	    -14.21585665	     57.38551745	     67.57923755	     89.42936541	     23.28237433	     22.61317643	      5.75485624	    -13.53689230	     42.32802780	     71.63795925	     84.40386255	     19.72279407	     29.52507375
      0.05084746	      0.65362711	     -5.39464787	     97.16029864	      0.08437952	      0.73095516	      0.75624006	     -6.92329541	      1.66941704	      2.18159274	      6.61039761	      0.11537320	     32.06918142	     -1.45704138	      0.00000000	     -5.56988914	      0.52614145	      3.34360802	      6.70143809	      0.11696216	     31.61973657	     -5.20709028	      0.00000000	     -0.01358109	      0.08839676	     -0.85524040	     -0.02522144	      0.11756768	     -0.90869292	     -0.02231237	      0.21492787	     -0.90869292	     -0.01552183	      0.21492787	     -0.74833535	     -0.01261140	      0.18025866	     -0.69488282	     -0.00776023	      0.13692657	     -0.64143030	     -0.09700836	      0.99996177	     -4.75659051	      0.00000000	      0.00000000	     12.52563704	     -0.88442837	     -1.89671037	     10.84092775	    -14.42661418	     57.17345657	     67.79142931	     89.38639808	     23.42372995	     22.38810745	      5.22823444	    -13.51675617	     41.95611593	     71.86376930	     83.94473875	     19.85373552	     29.16470874
      0.06779661	      0.83304648	     -5.58406637	     97.33052704	      0.08378039	      0.73065900	      0.75634129	     -6.51183401	      1.62297851	     -1.34558727	      6.98340339	      0.12188338	     33.13122290	      3.15928882	      0.00000000	     -5.21146726	      0.26479500	      1.82127004	      7.12330670	      0.12432516	     31.89548810	     -3.43411509	      0.00000000	      0.00228649	      0.11132317	     -0.85086552	      0.00424624	      0.14805981	     -0.90404462	      0.00375647	      0.27067115	     -0.90404462	      0.00261323	      0.27067115	     -0.74450733	      0.00212323	      0.22701020	     -0.69132824	      0.00130650	      0.17243959	     -0.63814914	      0.01633215	      1.25930993	     -4.73225879	      0.00000000	      0.00000000	     12.96152090	     -1.14771912	     -1.71736588	     10.08339013	    -14.41950195	     55.93200115	     67.65669240	     89.30405719	     25.31308170	     22.34435220	      4.64495409	    -13.31406125	     41.67029642	     71.77910733	     81.48653800	     19.32446512	     29.02563252
      0.08474576	      0.90295071	     -5.64450623	     97.43243376	      0.08348545	      0.73037970	      0.75637457	     -6.36745888	      1.68682176	     -1.52915484	      7.15429956	      0.12486608	     33.24898273	      3.16078114	      0.00000000	     -5.13692722	      0.18935712	      1.57467194	      7.23790393	      0.12632525	     31.76104196	     -3.61495822	      0.00000000	     -0.00503623	      0.11595740	     -0.83816111	     -0.00935279	      0.15422334	     -0.89054618	     -0.00827403	      0.28193882	     -0.89054618	     -0.00575591	      0.28193882	     -0.73339097	     -0.00467665	      0.23646032	     -0.68100590	     -0.00287770	      0.17961801	     -0.62862083	     -0.03597332	      1.31173327	     -4.66160066	      0.00000000	      0.00000000	     13.35208348	     -1.21970039	     -1.80657280	      9.56277576	    -14.57812601	     55.49947986	     67.82261405	     89.17060086	     25.51753342	     22.26623732	      4.13451856	    -13.24213834	     41.35451385	     71.93770644	     81.05630482	     19.10019725	     28.67735940
      0.10169492	      0.96213309	     -5.75915269	     97.44798810	      0.08331854	      0.73005067	      0.75623024	     -6.19047289	      1.68113034	     -2.33846829	      7.31072076	      0.12759615	     33.45449638	      4.05888152	      0.00000000	     -5.03857344	      0.15008842	      1.68978009	      7.29035274	      0.12724066	     31.63349727	     -4.05016918	      0.00000000	      0.00556843	      0.11774170	     -0.73401418	      0.01034114	      0.15659646	     -0.77989006	      0.00914838	      0.28627716	     -0.77989006	      0.00636416	      0.28627716	     -0.64226240	      0.00517085	      0.24009887	     -0.59638652	      0.00318180	      0.18238189	     -0.55051063	      0.03977477	      1.33191762	     -4.08236665	      0.00000000	      0.00000000	     13.51813504	     -1.45590908	     -2.43390687	      8.44449686	    -14.44252814	     53.64774457	     67.77036015	     89.01215739	     27.58854478	     23.28853177	      4.22698968	    -13.30297502	     42.28994393	     71.87003928	     78.92895129	     17.56570695	     28.68356047
